<?xml version="1.0" encoding="utf-8"?>
<!-- Generator: Adobe Illustrator 16.0.0, SVG Export Plug-In . SVG Version: 6.00 Build 0)  -->
<!DOCTYPE svg PUBLIC "-//W3C//DTD SVG 1.1//EN" "http://www.w3.org/Graphics/SVG/1.1/DTD/svg11.dtd">
<svg version="1.1" xmlns="http://www.w3.org/2000/svg" xmlns:xlink="http://www.w3.org/1999/xlink" x="0px" y="0px" width="2300px"
	 height="2300px" viewBox="0 0 2300 2300" enable-background="new 0 0 2300 2300" xml:space="preserve">
<g id="Layer_1">
	<g>
		<path d="M1152.116,2294.294c-95.665-93.538-186.282-183.696-279.021-271.616c-21.336-20.223-48.066-37.859-75.514-48.09
			C357.835,1810.61,97.214,1385.738,140.939,901.64c38.65-427.979,391.786-800.894,833.467-880.208
			c509.502-91.49,1010.388,224.725,1151.701,727.104c140.802,500.521-123.854,1030.021-607.236,1219.55
			c-40.915,16.048-79.928,43.501-112.172,73.785C1319.35,2123.949,1236.13,2210.414,1152.116,2294.294z M1147.907,1773.176
			c416.267,0.303,759.912-342.37,754.999-752.889c-4.959-415.69-339.985-749.577-752.537-749.991
			c-415.467-0.415-756.645,339.986-754.925,753.202C397.162,1436.234,735.06,1772.885,1147.907,1773.176z"/>
		<path d="M1028.271,971.273c-20.839-2.082-37.728-3.771-59.651-5.954c0-36.558,0-73.259,0-113.375c97.019,0,193.444,0,296.573,0
			c0,176.579,0,350.88,0,526.775c24.655,3.19,42.977,5.562,65.381,8.449c0,35.791,0,70.978,0,111.054
			c-120.274,0-240.795,0-363.969,0c0-37.212,0-72.564,0-111.12c20.994-2.327,39.359-4.343,61.666-6.805
			C1028.271,1245.14,1028.271,1110.87,1028.271,971.273z"/>
		<path d="M1264.075,660.458c0.794,63.864-51.247,116.033-115.452,115.731c-62.057-0.292-112.608-49.405-114.399-111.144
			c-1.847-63.78,49.242-117.975,112.586-119.44C1209.539,544.151,1263.28,596.791,1264.075,660.458z"/>
	</g>
</g>
<g id="contact" display="none">
	<path display="inline" d="M1980.682,1727.449c-326.977-75.425-631.296-141.453-483.95-419.344
		C1945.419,462.211,1615.666,9.865,1141.881,9.865c-483.11,0-804.735,469.694-354.854,1298.24
		c151.822,279.563-163.995,345.569-483.947,419.344C-23.717,1802.809,1.45,1975.141,1.45,2287.818h2280.887
		C2282.315,1975.141,2307.457,1802.809,1980.682,1727.449z"/>
</g>
<g id="blog" display="none">
	<g display="inline">
		<path d="M2200.769,436.12h-257.794v-144.06c0-42.966-37.909-80.876-83.401-80.876H85.353c-42.966,0-78.351,37.91-78.351,80.876
			v1544.226c0,136.48,113.736,250.212,250.209,250.212h1774.221c136.482-2.526,250.214-111.203,250.214-250.212V514.472
			C2281.646,471.505,2246.26,436.12,2200.769,436.12L2200.769,436.12z M257.211,1922.218c-48.016,0-85.929-37.911-85.929-85.932
			V375.465h1609.941v1460.821c0,27.806,5.057,58.132,15.163,85.932H257.211z M2117.365,1836.286
			c0,48.021-37.909,85.932-88.457,85.932c-48.021,0-88.46-37.911-88.46-85.932V597.872h176.917V1836.286z M1030.591,1267.626
			h586.353v-144.06h-586.353V1267.626z M1030.591,1641.68h586.353v-144.061h-586.353V1641.68z M330.505,607.983v288.12h1286.439
			v-288.12H330.505z M330.505,1641.68h543.387v-515.584H330.505V1641.68z"/>
	</g>
</g>
<g id="corbata" display="none">
	<g display="inline">
		<g>
			<path d="M1420.957,206.852c-6.391,27.377-34.633,49.766-62.753,49.766h-161.677c-28.119,0-56.361-22.389-62.753-49.766
				l-36.477-156.057C1090.906,23.394,1108.645,1,1136.789,1h281.179c28.12,0,45.883,22.394,39.491,49.77L1420.957,206.852z"/>
		</g>
		<g>
			<g>
				<g>
					<path d="M998.401,1402.676c-16.87-22.495-34.817-18.278-39.932,9.377l-59.53,323.742c-5.086,27.658,4.499,68.708,21.32,91.252
						l326.496,437.77c16.82,22.544,44.349,22.572,61.194,0.054l137.649-184.046c16.845-22.519,16.821-59.327-0.05-81.822
						L998.401,1402.676z"/>
				</g>
				<g>
					<path d="M1482.817,1949.233c16.87,22.494,44.451,22.47,61.297-0.05l88.189-117.915c16.845-22.524,26.532-63.573,21.572-91.257
						l-235.37-1305.254c-4.96-27.684-32.055-50.33-60.175-50.33h-159.756c-28.12,0-55.293,22.622-60.379,50.276L991.651,1231.67
						c-5.086,27.654,4.548,68.679,21.418,91.149L1482.817,1949.233z"/>
				</g>
			</g>
		</g>
	</g>
</g>
<g id="gear" display="none">
	<path display="inline" d="M1388.843,39.338c9.843,76.297,22.15,150.129,31.995,223.964c0,7.383,0,12.304,2.459,19.687
		c7.383,24.616,130.441,66.452,152.591,49.223c54.145-39.377,108.288-78.755,159.974-120.596c19.688-17.225,34.454-12.304,51.683,0
		c118.134,81.218,216.581,182.127,297.795,300.257c12.308,17.232,12.308,29.536,0,46.765
		c-41.837,51.682-81.214,108.288-120.593,159.97c-12.308,17.229-17.228,31.995-4.924,51.686
		c7.383,12.304,14.766,24.612,17.228,36.916c9.846,56.606,44.299,73.835,95.985,76.294c51.682,2.462,103.368,14.766,152.591,19.69
		c22.149,2.459,29.533,9.842,34.453,29.533c19.691,103.368,24.612,209.193,14.767,312.566
		c-2.459,39.373-9.841,81.214-17.225,120.592c-2.462,9.846-14.77,22.153-24.611,24.611
		c-66.452,12.308-135.363,22.149-201.815,29.533c-22.149,2.462-34.453,9.846-39.377,31.999
		c-2.459,12.304-7.384,27.069-14.768,39.373c-34.457,46.762-19.686,86.14,17.229,125.518
		c34.457,39.378,63.989,81.219,93.521,123.059c7.384,9.846,7.384,31.995,2.463,41.837
		c-81.219,120.596-182.124,221.501-302.72,305.183c-17.229,12.304-29.533,9.845-46.762-2.463
		c-51.682-41.84-108.288-81.219-159.974-120.597c-14.767-12.304-29.532-17.225-46.762-4.921
		c-12.304,7.384-27.069,14.767-41.836,17.229c-56.606,9.846-71.373,46.761-73.836,98.443
		c-2.462,51.685-12.308,105.829-22.149,157.512c-2.462,9.845-14.766,24.611-27.073,27.073
		c-145.204,29.533-287.954,29.533-433.158,2.463c-19.691-2.463-27.075-12.309-29.533-31.995
		c-7.383-66.452-19.691-132.9-27.074-199.352c-2.459-22.149-9.842-34.458-31.991-39.379c-9.85-2.462-22.153-7.384-31.999-12.308
		c-49.223-34.453-91.06-24.607-135.363,17.229c-34.453,34.458-78.756,59.069-118.129,91.064
		c-17.233,14.766-29.537,14.766-46.765,2.458c-120.597-83.677-221.502-184.582-305.179-305.179
		c-12.304-17.229-9.846-29.532,2.462-46.761c41.841-51.683,81.214-108.289,120.596-159.975
		c12.304-14.767,17.225-29.532,4.921-46.761c-7.383-9.846-14.77-22.149-14.77-34.453c-9.842-66.452-54.141-78.756-113.209-83.682
		c-49.219-2.458-98.443-12.308-145.208-22.149c-9.842-2.458-24.607-17.228-27.07-27.073c-29.537-145.205-29.537-287.95,0-433.154
		c2.462-9.85,17.228-24.615,27.07-24.615c68.914-12.304,137.825-19.688,206.735-31.991c12.308-2.462,22.149-14.767,31.995-24.616
		c2.462-2.458,2.462-9.841,4.92-14.766c49.224-68.911,29.537-127.976-24.608-184.583c-27.074-29.536-51.681-63.99-73.835-95.984
		c-7.383-9.842-7.383-29.533-2.462-39.379c81.218-123.058,184.586-223.964,305.182-307.641c17.225-12.304,27.074-9.845,41.84,2.463
		c51.683,41.84,108.289,81.214,159.97,120.596c17.229,12.304,31.995,17.225,49.224,4.921c12.308-7.383,27.075-14.767,41.84-17.229
		c56.607-9.841,68.911-46.761,71.373-95.984c2.459-51.682,14.767-103.368,19.687-155.049c2.462-24.612,12.304-31.995,34.453-34.458
		C1086.123,7.347,1236.252,7.347,1388.843,39.338z M729.259,1137.001c-2.458,228.885,184.586,413.471,413.471,415.934
		c226.422,0,415.928-187.049,415.928-413.472c0-226.426-187.044-411.008-413.47-413.47
		C916.303,723.534,729.259,908.116,729.259,1137.001z"/>
</g>
<g id="pin" display="none">
	<g display="inline">
		<path d="M977,8.406c-385.399,0-698.944,313.545-698.944,698.944S977,2288.143,977,2288.143s698.944-1195.394,698.944-1580.792
			S1362.398,8.406,977,8.406z M1218.692,1125.41c-55.525,29.399-117.581,52.258-182.905,58.793
			c-19.596,3.263-39.192,3.263-58.788,3.263s-39.192,0-58.788-3.263c-65.324-6.535-127.379-29.394-182.904-58.793
			c-150.237-84.914-248.222-244.954-248.222-427.858c0-271.086,218.829-489.915,489.914-489.915
			c271.086,0,489.914,218.829,489.914,489.915C1466.914,880.456,1365.666,1040.497,1218.692,1125.41z"/>
		<g>
			<g>
				<path id="a" d="M1212.161,1007.83l55.521-55.526c16.333-16.328,16.333-39.191,0-55.52l-111.045-84.919
					c-19.596-13.066-39.192-16.329-55.525,0l-32.662,35.924c-32.662-26.126-71.854-55.52-104.515-91.444
					c-39.192-39.197-75.116-81.657-104.515-120.848l32.661-32.662c16.334-16.328,13.066-35.924,0-55.52l-84.919-111.05
					c-13.061-19.597-39.192-16.334-55.525,0l-55.52,55.525c-29.399,29.394-19.601,71.854,0,111.045
					c0,0,68.586,124.111,176.369,228.626c97.98,97.985,231.894,176.369,231.894,176.369
					C1143.571,1024.163,1179.5,1037.224,1212.161,1007.83"/>
			</g>
			<g>
				<defs>
					<path id="SVGID_1_" d="M1212.161,1007.83l55.521-55.526c16.333-16.328,16.333-39.191,0-55.52l-111.045-84.919
						c-19.596-13.066-39.192-16.329-55.525,0l-32.662,35.924c-32.662-26.126-71.854-55.52-104.515-91.444
						c-39.192-39.197-75.116-81.657-104.515-120.848l32.661-32.662c16.334-16.328,13.066-35.924,0-55.52l-84.919-111.05
						c-13.061-19.597-39.192-16.334-55.525,0l-55.52,55.525c-29.399,29.394-19.601,71.854,0,111.045
						c0,0,68.586,124.111,176.369,228.626c97.98,97.985,231.894,176.369,231.894,176.369
						C1143.571,1024.163,1179.5,1037.224,1212.161,1007.83"/>
				</defs>
				<clipPath id="SVGID_2_">
					<use xlink:href="#SVGID_1_"  overflow="visible"/>
				</clipPath>
				<rect x="578.535" y="321.951" clip-path="url(#SVGID_2_)" width="800.197" height="800.191"/>
			</g>
		</g>
	</g>
</g>
</svg>
